HIERARCHY
ROOT root
{
	OFFSET 0.000000 0.000000 0.000000
	CHANNELS 6 Xposition Yposition Zposition Zrotation Yrotation Xrotation
	JOINT lhip
	{
		OFFSET 0.058581 -0.082280 -0.017664
		CHANNELS 3 Zrotation Yrotation Xrotation
		JOINT lknee
		{
			OFFSET 0.043451 -0.386469 0.008037
			CHANNELS 3 Zrotation Yrotation Xrotation
			JOINT lankle
			{
				OFFSET -0.014790 -0.426874 -0.037428
				CHANNELS 3 Zrotation Yrotation Xrotation
				JOINT ltoe
				{
					OFFSET 0.041054 -0.060286 0.122042
					CHANNELS 3 Zrotation Yrotation Xrotation
					End Site
					{
						OFFSET 0.000000 0.000000 0.000000
					}
				}
			}
		}
	}
	JOINT rhip
	{
		OFFSET -0.060310 -0.090513 -0.013543
		CHANNELS 3 Zrotation Yrotation Xrotation
		JOINT rknee
		{
			OFFSET -0.043257 -0.383688 -0.004843
			CHANNELS 3 Zrotation Yrotation Xrotation
			JOINT rankle
			{
				OFFSET 0.019056 -0.420046 -0.034562
				CHANNELS 3 Zrotation Yrotation Xrotation
				JOINT rtoe
				{
					OFFSET -0.034840 -0.062106 0.130323
					CHANNELS 3 Zrotation Yrotation Xrotation
					End Site
					{
						OFFSET 0.000000 0.000000 0.000000
					}
				}
			}
		}
	}
	JOINT lowerback
	{
		OFFSET 0.004439 0.124404 -0.038385
		CHANNELS 3 Zrotation Yrotation Xrotation
		JOINT upperback
		{
			OFFSET 0.004488 0.137956 0.026820
			CHANNELS 3 Zrotation Yrotation Xrotation
			JOINT chest
			{
				OFFSET -0.002265 0.056032 0.002855
				CHANNELS 3 Zrotation Yrotation Xrotation
				JOINT lowerneck
				{
					OFFSET -0.013390 0.211636 -0.033468
					CHANNELS 3 Zrotation Yrotation Xrotation
					JOINT upperneck
					{
						OFFSET 0.010113 0.088937 0.050410
						CHANNELS 3 Zrotation Yrotation Xrotation
						End Site
						{
							OFFSET 0.000000 0.000000 0.000000
						}
					}
				}
				JOINT lclavicle
				{
					OFFSET 0.071702 0.114000 -0.018898
					CHANNELS 3 Zrotation Yrotation Xrotation
					JOINT lshoulder
					{
						OFFSET 0.122921 0.045205 -0.019046
						CHANNELS 3 Zrotation Yrotation Xrotation
						JOINT lelbow
						{
							OFFSET 0.255332 -0.015649 -0.022946
							CHANNELS 3 Zrotation Yrotation Xrotation
							JOINT lwrist
							{
								OFFSET 0.265709 0.012698 -0.007375
								CHANNELS 3 Zrotation Yrotation Xrotation
								End Site
								{
									OFFSET 0.000000 0.000000 0.000000
								}
							}
						}
					}
				}
				JOINT rclavicle
				{
					OFFSET -0.082954 0.112472 -0.023707
					CHANNELS 3 Zrotation Yrotation Xrotation
					JOINT rshoulder
					{
						OFFSET -0.113228 0.046853 -0.008472
						CHANNELS 3 Zrotation Yrotation Xrotation
						JOINT relbow
						{
							OFFSET -0.260127 -0.014369 -0.031269
							CHANNELS 3 Zrotation Yrotation Xrotation
							JOINT rwrist
							{
								OFFSET -0.269108 0.006794 -0.006027
								CHANNELS 3 Zrotation Yrotation Xrotation
								End Site
								{
									OFFSET 0.000000 0.000000 0.000000
								}
							}
						}
					}
				}
			}
		}
	}
}
MOTION
Frames: 17
Frame Time: 0.033333
1.980465 -0.094551 0.994451 -1.680079 -0.304566 92.924505 2.287420 -3.483904 -4.765091 -7.048579 -2.741100 0.805593 3.886725 3.124414 -10.145690 0.000000 -0.000000 0.000000 -5.060818 1.542381 -9.642014 6.450242 -7.467832 13.163592 1.448967 3.152984 -8.487089 0.000000 -0.000000 0.000000 -2.981111 1.588789 -4.751087 3.261345 -4.568123 6.419827 -1.259961 1.226380 -3.667592 -4.457155 -7.527365 17.263368 11.397277 -7.716337 -12.320115 -13.617194 -9.804270 0.474435 -79.058201 -25.206859 33.721582 145.075357 -59.544684 -136.624778 11.144067 -17.231827 -38.511589 14.332441 15.963167 3.002507 75.665296 25.414723 24.438960 -156.886127 68.186313 -149.446282 -12.006656 12.371913 -32.178928 
1.980531 -0.094041 0.994462 -1.875604 -0.275637 92.826972 2.341338 -3.681138 -4.664679 -7.024832 -2.534553 0.701662 3.648811 3.231554 -9.989853 0.000000 -0.000000 0.000000 -5.012515 1.773830 -9.517236 6.421277 -7.190717 12.967273 2.430547 2.898708 -8.315884 0.000000 -0.000000 0.000000 -2.618375 0.751652 -4.218960 2.937002 -5.177188 4.191910 -1.298718 1.974320 -2.077538 -5.305492 -7.094844 20.769549 12.108624 -7.664071 -12.500585 -10.704195 -11.487958 -0.376875 -81.871383 -30.046980 36.596992 152.767357 -58.845897 -140.538299 22.402327 -15.711530 -36.933406 13.131187 18.869688 3.193611 77.760766 31.133051 26.450589 -160.547538 64.868519 -151.757948 -17.550221 12.496031 -33.523189 
1.980587 -0.093976 0.994754 -2.218510 -0.313429 92.720918 2.247528 -3.751216 -4.581181 -6.877137 -1.858228 0.734635 3.479689 2.848658 -10.026780 0.000000 -0.000000 0.000000 -5.101068 1.923397 -9.556584 6.307927 -7.653109 13.103922 2.720033 3.688349 -8.305715 0.000000 -0.000000 0.000000 -2.611024 0.472654 -4.439234 2.955057 -5.669121 4.337217 -1.369822 2.311597 -2.223196 -6.061186 -6.518899 24.528194 12.757426 -7.882047 -13.002656 -8.288613 -13.311828 -0.808468 -84.399969 -33.597510 38.689868 155.237300 -57.838658 -140.574598 25.050674 -16.810533 -34.821380 11.724922 21.727345 3.536312 79.854234 35.562260 28.616302 -161.413772 61.957359 -152.066645 -19.434302 13.039846 -34.090180 
1.980559 -0.094347 0.994943 -2.674640 -0.299155 92.621133 2.213137 -3.838604 -4.492296 -6.753414 -1.245713 0.833103 3.433713 2.667463 -10.094133 0.000000 -0.000000 0.000000 -5.092647 2.137401 -9.552232 6.165069 -8.018564 13.215777 2.878014 4.411250 -8.311970 0.000000 -0.000000 0.000000 -2.718428 0.552900 -5.130063 3.068797 -5.989867 5.535044 -1.300260 2.366172 -2.823916 -7.115800 -6.333249 28.742223 13.336989 -7.738259 -13.773852 -5.889130 -15.691449 -0.810909 -87.406863 -36.159070 40.930223 157.256897 -55.731908 -140.348175 26.174189 -16.895932 -33.646651 9.550675 24.398257 3.692108 82.540451 39.175615 31.103860 -162.856663 59.006524 -152.669432 -20.790599 12.941265 -35.233663 
1.980625 -0.094692 0.995006 -2.975911 -0.293820 92.601504 2.192441 -3.890587 -4.470562 -6.701179 -0.892079 0.877737 3.452634 2.612634 -10.138514 0.000000 -0.000000 0.000000 -5.094819 2.281681 -9.610896 6.077924 -8.199377 13.343432 2.955534 4.804715 -8.354312 0.000000 -0.000000 0.000000 -2.702367 0.617351 -5.595995 3.090219 -6.101205 6.314408 -1.350380 2.401653 -3.123072 -7.596639 -6.182930 30.751533 13.641032 -7.749454 -14.164526 -4.789005 -16.770652 -0.698099 -89.162852 -36.829353 42.203454 158.509814 -54.665486 -140.565954 27.104542 -16.870341 -33.267704 8.513540 25.529268 3.771928 83.987243 40.428295 32.409205 -164.081309 57.543494 -153.277818 -21.591414 12.788188 -35.642986 
1.980724 -0.095284 0.994943 -3.336174 -0.316281 92.588826 2.160066 -3.954866 -4.445400 -6.672106 -0.455815 0.911736 3.498845 2.532255 -10.197598 0.000000 -0.000000 0.000000 -5.135276 2.469637 -9.693533 5.954715 -8.506330 13.554105 3.017766 5.361300 -8.464458 0.000000 -0.000000 0.000000 -2.690388 0.643346 -6.241347 3.084557 -6.248441 7.545098 -1.478215 2.442028 -3.618941 -7.951018 -5.965256 32.883482 13.900826 -7.774436 -14.797184 -3.870376 -17.676973 -0.324881 -91.285567 -36.987456 43.570947 160.384950 -53.522997 -141.238899 27.955479 -17.142992 -32.798921 7.624473 26.701967 4.155224 86.092399 41.465550 34.047845 -165.616661 55.905971 -153.480803 -22.381858 12.978823 -35.197356 
1.980720 -0.095928 0.994798 -3.570247 -0.349154 92.566719 2.144795 -4.001100 -4.400214 -6.679330 -0.137327 0.921805 3.549833 2.428806 -10.269783 0.000000 -0.000000 0.000000 -5.209944 2.610729 -9.712376 5.904324 -8.815313 13.730256 3.056459 5.833749 -8.597574 0.000000 -0.000000 0.000000 -2.718146 0.628796 -6.808754 3.057112 -6.392583 8.708773 -1.587794 2.426767 -4.070535 -8.118610 -5.827756 34.470902 14.050865 -7.663068 -15.425775 -3.695453 -18.098775 0.300307 -92.861454 -36.732989 44.307063 162.281782 -52.760987 -142.050127 27.645940 -17.855118 -31.990674 7.232515 27.516290 4.748964 87.929407 41.895813 35.338449 -167.279892 54.693647 -153.699894 -22.361898 13.564790 -34.239693 
1.980686 -0.096544 0.994532 -3.694837 -0.368397 92.557569 2.165380 -4.009126 -4.382703 -6.736470 0.004276 0.934761 3.579576 2.384758 -10.336396 0.000000 -0.000000 0.000000 -5.269369 2.684886 -9.729929 5.895288 -9.046137 13.889635 3.031495 6.159313 -8.765299 0.000000 -0.000000 0.000000 -2.759679 0.609885 -7.293146 3.037186 -6.509046 9.625967 -1.665745 2.382844 -4.318949 -8.231948 -5.755508 35.539488 14.271814 -7.455797 -16.013695 -3.917050 -18.337758 0.973358 -93.924256 -36.495476 44.625865 164.271444 -52.545788 -142.882276 27.743630 -18.576724 -30.924483 7.090359 27.983186 5.237402 89.199194 41.926336 36.096469 -169.232700 53.818339 -154.697295 -22.344191 14.008577 -33.656313 
1.980649 -0.097027 0.994302 -3.748746 -0.395895 92.560270 2.160251 -4.012565 -4.399190 -6.750045 0.119586 0.963993 3.570675 2.318019 -10.397386 0.000000 -0.000000 0.000000 -5.338242 2.729826 -9.739333 5.914081 -9.234733 13.991792 3.009572 6.394927 -8.892978 0.000000 -0.000000 0.000000 -2.757444 0.548487 -7.610372 2.973205 -6.662855 10.327360 -1.781252 2.341601 -4.580503 -8.297696 -5.548023 36.208358 14.525692 -7.260189 -16.417436 -4.048887 -18.449818 1.328603 -94.731025 -36.156636 45.072360 165.911304 -52.277331 -144.040120 28.171848 -19.020426 -30.497577 6.986955 28.249980 5.587503 90.192134 41.773991 36.835869 -170.773099 53.442809 -155.984342 -23.051589 14.357832 -33.503560 
1.980535 -0.097347 0.994224 -3.741929 -0.393258 92.572711 2.192157 -4.017076 -4.455495 -6.760647 0.149619 1.018281 3.570456 2.282337 -10.416390 0.000000 -0.000000 0.000000 -5.355001 2.739172 -9.731817 5.939794 -9.361453 14.027464 3.004030 6.527188 -8.961998 0.000000 -0.000000 0.000000 -2.813661 0.514175 -7.926338 2.905029 -6.808176 10.878317 -1.791433 2.276202 -4.794937 -8.265173 -5.117745 36.777257 14.690884 -6.926436 -16.602834 -4.048252 -19.055980 1.605026 -95.187791 -36.060129 45.485301 167.115691 -52.054189 -144.723163 29.137221 -19.296024 -29.770449 6.880552 28.646967 5.880039 90.762144 41.561385 37.116621 -171.523947 53.197524 -156.352724 -24.002020 14.402693 -33.209768 
1.980404 -0.097402 0.994278 -3.733133 -0.404632 92.598863 2.199683 -4.060444 -4.501855 -6.756768 0.174402 1.027246 3.598020 2.294569 -10.394367 0.000000 -0.000000 0.000000 -5.345544 2.718254 -9.730472 5.933799 -9.376286 14.013360 2.988017 6.537253 -8.972735 0.000000 -0.000000 0.000000 -2.874633 0.522582 -8.055847 2.843323 -6.848069 10.957516 -1.780770 2.242452 -4.813654 -8.208196 -4.748293 36.912068 14.800459 -6.694090 -16.535343 -3.808528 -19.580556 1.610804 -95.448482 -36.187152 45.833288 167.173573 -51.922744 -144.663032 30.073477 -19.082734 -29.369694 6.739667 28.856819 5.899179 91.034431 41.514789 37.157262 -171.531311 53.097605 -156.175700 -24.258422 14.313921 -33.018668 
1.980199 -0.097359 0.994380 -3.745722 -0.401340 92.613730 2.230510 -4.078628 -4.521285 -6.761510 0.196549 1.021205 3.608130 2.295295 -10.382022 0.000000 -0.000000 0.000000 -5.310626 2.718015 -9.715454 5.935669 -9.357741 13.970347 2.973123 6.523447 -8.947422 0.000000 -0.000000 0.000000 -2.890768 0.543913 -8.068733 2.791517 -6.820307 10.829179 -1.781913 2.217477 -4.715783 -8.164786 -4.498434 36.793442 14.859350 -6.557490 -16.567377 -3.480211 -19.846171 1.409492 -95.757532 -36.344718 46.083824 166.864749 -51.888073 -144.258364 30.502073 -18.870561 -29.422421 6.458160 28.960357 5.676190 91.325131 41.561056 37.319714 -171.509046 53.001996 -156.141829 -24.380390 14.186661 -33.226870 
1.979987 -0.097316 0.994501 -3.778065 -0.385964 92.627322 2.272414 -4.058651 -4.525814 -6.773304 0.236478 0.995624 3.599162 2.269611 -10.363084 0.000000 -0.000000 0.000000 -5.280137 2.705115 -9.711620 5.956979 -9.351487 13.932481 2.964197 6.553433 -8.929059 0.000000 -0.000000 0.000000 -2.880615 0.599845 -8.076729 2.742531 -6.732428 10.700977 -1.775022 2.202594 -4.636708 -8.092747 -4.395976 36.612414 14.833696 -6.556923 -16.814820 -3.191524 -20.055300 1.199116 -96.094205 -36.497954 46.296086 166.573787 -51.898116 -143.926122 30.728188 -18.825218 -29.253230 6.089395 29.111763 5.401139 91.627405 41.637488 37.499575 -171.409387 52.900487 -155.986548 -24.689677 14.050356 -33.288728 
1.979779 -0.097298 0.994601 -3.838608 -0.391519 92.656584 2.280172 -4.067013 -4.528037 -6.754551 0.301623 0.948271 3.609790 2.254852 -10.359722 0.000000 -0.000000 0.000000 -5.276800 2.692734 -9.713920 5.983304 -9.354456 13.882263 2.943293 6.605838 -8.909304 0.000000 -0.000000 0.000000 -2.886912 0.679963 -8.123699 2.683113 -6.617339 10.625199 -1.764322 2.208958 -4.606995 -8.029844 -4.378405 36.399869 14.825298 -6.658882 -17.158377 -2.920421 -20.302860 0.995676 -96.437251 -36.541401 46.523846 166.292538 -51.906449 -143.623110 30.832623 -18.938154 -29.156558 5.735384 29.314657 5.156641 91.889234 41.680562 37.619627 -171.191862 52.833077 -155.638212 -24.850484 14.035115 -33.326046 
1.979553 -0.097274 0.994637 -3.887448 -0.387169 92.680233 2.300463 -4.071445 -4.537817 -6.739666 0.365971 0.923591 3.610302 2.245038 -10.357722 0.000000 -0.000000 0.000000 -5.271120 2.682908 -9.707216 6.021206 -9.348273 13.820707 2.921860 6.656011 -8.876153 0.000000 -0.000000 0.000000 -2.891177 0.764340 -8.202838 2.636764 -6.498817 10.585052 -1.739000 2.213093 -4.572989 -8.007335 -4.430119 36.189415 14.828482 -6.770865 -17.457130 -2.763986 -20.560104 0.858764 -96.676501 -36.570601 46.636743 166.019930 -51.906503 -143.202004 30.887978 -19.066466 -29.080266 5.438325 29.519465 4.956901 92.138076 41.747038 37.687959 -170.950943 52.780644 -155.281268 -24.868318 14.040588 -33.383776 
1.979293 -0.097274 0.994628 -3.913223 -0.399446 92.688698 2.311161 -4.086571 -4.542935 -6.744568 0.408417 0.922968 3.633052 2.233071 -10.377810 0.000000 -0.000000 0.000000 -5.283994 2.655592 -9.690705 6.063539 -9.349683 13.781902 2.894594 6.708656 -8.869004 0.000000 -0.000000 0.000000 -2.903003 0.845044 -8.309391 2.590477 -6.408278 10.629895 -1.745880 2.209061 -4.598018 -7.994917 -4.411513 36.032284 14.827875 -6.848771 -17.654011 -2.662121 -20.717066 0.789186 -96.842034 -36.609237 46.660295 165.772714 -51.906931 -142.765525 30.700149 -19.206684 -28.918152 5.290749 29.675548 4.886419 92.410339 41.866479 37.779626 -170.701751 52.788029 -154.829755 -24.707058 14.058981 -33.161678 
1.979049 -0.097297 0.994622 -3.919378 -0.409753 92.676599 2.322693 -4.111269 -4.533957 -6.742530 0.423232 0.927809 3.658894 2.229657 -10.393901 0.000000 -0.000000 0.000000 -5.283422 2.638859 -9.654080 6.090525 -9.374043 13.759907 2.865543 6.747199 -8.887593 0.000000 -0.000000 0.000000 -2.934773 0.927689 -8.407157 2.569921 -6.331099 10.672968 -1.742159 2.196089 -4.631347 -7.979395 -4.368455 35.986498 14.815260 -6.846389 -17.760545 -2.653574 -20.832317 0.813569 -96.986614 -36.663763 46.691076 165.575657 -51.925977 -142.498834 30.531378 -19.367118 -28.722866 5.216864 29.769234 4.860715 92.656195 41.912737 37.855293 -170.505671 52.835762 -154.488612 -24.547361 14.123412 -32.916169 
